<svg xmlns="http://www.w3.org/2000/svg" xmlns:xlink="http://www.w3.org/1999/xlink" width="500" zoomAndPan="magnify" viewBox="0 0 375 374.999991" height="500" preserveAspectRatio="xMidYMid meet" version="1.2"><defs><clipPath id="4d47e0e8c5"><path d="M 190 114.976562 L 215 114.976562 L 215 135 L 190 135 Z M 190 114.976562 "/></clipPath></defs><g id="d888099fef"><rect x="0" width="375" y="0" height="374.999991" style="fill:#ffffff;fill-opacity:1;stroke:none;"/><rect x="0" width="375" y="0" height="374.999991" style="fill:#ffffff;fill-opacity:1;stroke:none;"/><g style="fill:#6b3e0a;fill-opacity:1;"><g transform="translate(102.039842, 245.633905)"><path style="stroke:none" d="M 12.375 -11.765625 L 5.203125 -11.765625 L 5.203125 -8.359375 L 11.796875 -8.359375 L 11.796875 -5.421875 L 5.203125 -5.421875 L 5.203125 0 L 1.46875 0 L 1.46875 -14.703125 L 12.375 -14.703125 Z M 12.375 -11.765625 "/></g></g><g style="fill:#6b3e0a;fill-opacity:1;"><g transform="translate(115.248886, 245.633905)"><path style="stroke:none" d="M 11.234375 -2.703125 L 4.8125 -2.703125 L 3.734375 0 L -0.109375 0 L 6.234375 -14.703125 L 10.078125 -14.703125 L 16.28125 0 L 12.28125 0 Z M 10.140625 -5.546875 L 8.046875 -10.984375 L 5.90625 -5.546875 Z M 10.140625 -5.546875 "/></g></g><g style="fill:#6b3e0a;fill-opacity:1;"><g transform="translate(131.94395, 245.633905)"><path style="stroke:none" d="M 11.234375 -7.46875 L 14.46875 -7.46875 L 14.46875 -1.75 C 13.664062 -1.1875 12.703125 -0.722656 11.578125 -0.359375 C 10.453125 -0.00390625 9.378906 0.171875 8.359375 0.171875 C 6.117188 0.171875 4.25 -0.546875 2.75 -1.984375 C 1.25 -3.421875 0.5 -5.207031 0.5 -7.34375 C 0.5 -9.476562 1.269531 -11.257812 2.8125 -12.6875 C 4.351562 -14.113281 6.285156 -14.828125 8.609375 -14.828125 C 9.703125 -14.828125 10.785156 -14.628906 11.859375 -14.234375 C 12.941406 -13.847656 13.859375 -13.316406 14.609375 -12.640625 L 12.515625 -10.09375 C 11.984375 -10.59375 11.367188 -10.984375 10.671875 -11.265625 C 9.972656 -11.554688 9.28125 -11.703125 8.59375 -11.703125 C 7.382812 -11.703125 6.367188 -11.285156 5.546875 -10.453125 C 4.734375 -9.617188 4.328125 -8.582031 4.328125 -7.34375 C 4.328125 -6.101562 4.738281 -5.0625 5.5625 -4.21875 C 6.382812 -3.382812 7.40625 -2.96875 8.625 -2.96875 C 9.414062 -2.96875 10.285156 -3.203125 11.234375 -3.671875 Z M 11.234375 -7.46875 "/></g></g><g style="fill:#6b3e0a;fill-opacity:1;"><g transform="translate(148.072016, 245.633905)"><path style="stroke:none" d="M 14.703125 -14.703125 L 14.703125 -6.171875 C 14.703125 -4.222656 14.097656 -2.675781 12.890625 -1.53125 C 11.691406 -0.394531 10.0625 0.171875 8 0.171875 C 5.925781 0.171875 4.273438 -0.394531 3.046875 -1.53125 C 1.828125 -2.675781 1.21875 -4.222656 1.21875 -6.171875 L 1.21875 -14.703125 L 4.953125 -14.703125 L 4.953125 -6.171875 C 4.953125 -5.191406 5.234375 -4.410156 5.796875 -3.828125 C 6.367188 -3.253906 7.109375 -2.96875 8.015625 -2.96875 C 8.910156 -2.96875 9.628906 -3.253906 10.171875 -3.828125 C 10.710938 -4.398438 10.984375 -5.179688 10.984375 -6.171875 L 10.984375 -14.703125 Z M 14.703125 -14.703125 "/></g></g><g style="fill:#6b3e0a;fill-opacity:1;"><g transform="translate(164.51508, 245.633905)"><path style="stroke:none" d="M 15.03125 0 L 11.734375 0 L 4.984375 -9.046875 L 4.984375 0 L 1.46875 0 L 1.46875 -14.703125 L 4.765625 -14.703125 L 11.546875 -5.625 L 11.546875 -14.703125 L 15.03125 -14.703125 Z M 15.03125 0 "/></g></g><g style="fill:#6b3e0a;fill-opacity:1;"><g transform="translate(181.546142, 245.633905)"><path style="stroke:none" d="M 5.203125 0 L 1.46875 0 L 1.46875 -14.703125 L 5.203125 -14.703125 Z M 5.203125 0 "/></g></g><g style="fill:#6b3e0a;fill-opacity:1;"><g transform="translate(188.749168, 245.633905)"><path style="stroke:none" d=""/></g></g><g style="fill:#6b3e0a;fill-opacity:1;"><g transform="translate(194.14619, 245.633905)"><path style="stroke:none" d="M 12.375 -11.765625 L 5.203125 -11.765625 L 5.203125 -8.359375 L 11.796875 -8.359375 L 11.796875 -5.421875 L 5.203125 -5.421875 L 5.203125 0 L 1.46875 0 L 1.46875 -14.703125 L 12.375 -14.703125 Z M 12.375 -11.765625 "/></g></g><g style="fill:#6b3e0a;fill-opacity:1;"><g transform="translate(207.355234, 245.633905)"><path style="stroke:none" d="M 11.234375 -2.703125 L 4.8125 -2.703125 L 3.734375 0 L -0.109375 0 L 6.234375 -14.703125 L 10.078125 -14.703125 L 16.28125 0 L 12.28125 0 Z M 10.140625 -5.546875 L 8.046875 -10.984375 L 5.90625 -5.546875 Z M 10.140625 -5.546875 "/></g></g><g style="fill:#6b3e0a;fill-opacity:1;"><g transform="translate(224.050298, 245.633905)"><path style="stroke:none" d="M 10.328125 0 L 8.140625 -4.140625 L 5.203125 -4.140625 L 5.203125 0 L 1.46875 0 L 1.46875 -14.703125 L 8.046875 -14.703125 C 9.992188 -14.703125 11.5 -14.253906 12.5625 -13.359375 C 13.625 -12.472656 14.15625 -11.210938 14.15625 -9.578125 C 14.15625 -7.304688 13.265625 -5.726562 11.484375 -4.84375 L 14.578125 0 Z M 5.203125 -7.078125 L 8.046875 -7.078125 C 8.859375 -7.078125 9.488281 -7.28125 9.9375 -7.6875 C 10.382812 -8.09375 10.609375 -8.679688 10.609375 -9.453125 C 10.609375 -10.203125 10.382812 -10.773438 9.9375 -11.171875 C 9.488281 -11.566406 8.859375 -11.765625 8.046875 -11.765625 L 5.203125 -11.765625 Z M 5.203125 -7.078125 "/></g></g><g style="fill:#6b3e0a;fill-opacity:1;"><g transform="translate(239.779354, 245.633905)"><path style="stroke:none" d="M 17.625 0 L 14.328125 0 L 14.296875 -9.5625 L 10.765625 -1.46875 L 8.34375 -1.46875 L 4.8125 -9.5625 L 4.8125 0 L 1.46875 0 L 1.46875 -14.71875 L 5.5625 -14.71875 L 9.5625 -5.96875 L 13.546875 -14.71875 L 17.625 -14.71875 Z M 17.625 0 "/></g></g><g style="fill:#6b3e0a;fill-opacity:1;"><g transform="translate(259.414427, 245.633905)"><path style="stroke:none" d="M 7.125 -14.875 C 9.320312 -14.875 11.253906 -14.328125 12.921875 -13.234375 L 11.515625 -10.3125 C 10.742188 -10.757812 9.914062 -11.125 9.03125 -11.40625 C 8.144531 -11.695312 7.398438 -11.84375 6.796875 -11.84375 C 5.722656 -11.84375 5.1875 -11.484375 5.1875 -10.765625 C 5.1875 -10.304688 5.453125 -9.9375 5.984375 -9.65625 C 6.515625 -9.375 7.160156 -9.128906 7.921875 -8.921875 C 8.691406 -8.722656 9.457031 -8.476562 10.21875 -8.1875 C 10.976562 -7.90625 11.625 -7.441406 12.15625 -6.796875 C 12.6875 -6.160156 12.953125 -5.351562 12.953125 -4.375 C 12.953125 -2.957031 12.398438 -1.851562 11.296875 -1.0625 C 10.191406 -0.269531 8.785156 0.125 7.078125 0.125 C 5.859375 0.125 4.65625 -0.0820312 3.46875 -0.5 C 2.28125 -0.925781 1.242188 -1.5 0.359375 -2.21875 L 1.8125 -5.109375 C 2.550781 -4.460938 3.421875 -3.929688 4.421875 -3.515625 C 5.429688 -3.097656 6.332031 -2.890625 7.125 -2.890625 C 7.71875 -2.890625 8.179688 -3 8.515625 -3.21875 C 8.859375 -3.4375 9.03125 -3.753906 9.03125 -4.171875 C 9.03125 -4.578125 8.835938 -4.914062 8.453125 -5.1875 C 8.066406 -5.46875 7.585938 -5.671875 7.015625 -5.796875 C 6.441406 -5.929688 5.816406 -6.109375 5.140625 -6.328125 C 4.472656 -6.554688 3.851562 -6.800781 3.28125 -7.0625 C 2.707031 -7.332031 2.226562 -7.757812 1.84375 -8.34375 C 1.457031 -8.925781 1.265625 -9.625 1.265625 -10.4375 C 1.265625 -11.78125 1.796875 -12.851562 2.859375 -13.65625 C 3.929688 -14.46875 5.351562 -14.875 7.125 -14.875 Z M 7.125 -14.875 "/></g></g><path style=" stroke:none;fill-rule:nonzero;fill:#87cb28;fill-opacity:1;" d="M 174.386719 141.789062 C 173.601562 142.308594 172.890625 142.847656 172.253906 143.375 C 169.621094 145.558594 168.253906 147.59375 168.253906 147.59375 C 168.253906 147.59375 170.410156 146.285156 173.910156 145.125 C 174.78125 144.835938 175.738281 144.558594 176.761719 144.308594 C 182.898438 142.828125 191.570312 142.488281 200.105469 148.105469 C 200.105469 148.105469 190.59375 143.542969 179.6875 146.902344 C 178.851562 147.15625 178.007812 147.460938 177.160156 147.816406 C 175.273438 148.609375 173.359375 149.660156 171.464844 151.03125 C 180.746094 159.699219 189.820312 157.601562 197.183594 155.226562 C 198.113281 154.929688 199.011719 154.625 199.878906 154.339844 C 203.800781 153.042969 207.027344 152.652344 209.382812 152.605469 C 212.199219 152.554688 213.761719 153 213.761719 153 C 195.109375 133.722656 181.632812 136.992188 174.386719 141.789062 "/><g clip-rule="nonzero" clip-path="url(#4d47e0e8c5)"><path style=" stroke:none;fill-rule:nonzero;fill:#87cb28;fill-opacity:1;" d="M 211.863281 116.621094 C 210.511719 117.359375 208.550781 118.1875 205.90625 118.722656 C 205.320312 118.84375 204.710938 118.960938 204.089844 119.09375 C 199.140625 120.132812 193.308594 121.890625 190.851562 129.816406 C 192.371094 129.984375 193.796875 129.957031 195.128906 129.796875 C 195.726562 129.722656 196.300781 129.621094 196.859375 129.496094 C 204.140625 127.863281 208.054688 122.1875 208.054688 122.1875 C 205.035156 128.144531 200.003906 130.765625 196.039062 131.917969 C 195.378906 132.109375 194.746094 132.257812 194.15625 132.378906 C 191.796875 132.855469 190.144531 132.8125 190.144531 132.8125 C 190.144531 132.8125 191.582031 133.523438 193.785156 133.910156 C 194.316406 134 194.894531 134.074219 195.507812 134.117188 C 201.179688 134.488281 209.886719 131.972656 214.21875 114.976562 C 214.21875 114.976562 213.476562 115.738281 211.863281 116.621094 "/></g><path style=" stroke:none;fill-rule:nonzero;fill:#87cb28;fill-opacity:1;" d="M 205.554688 210.925781 C 184.726562 215.203125 164.371094 201.785156 160.09375 180.957031 C 155.816406 160.128906 169.234375 139.777344 190.0625 135.5 C 198.4375 133.78125 206.738281 134.921875 213.945312 138.257812 C 205.40625 133.277344 195.070312 131.300781 184.625 133.445312 C 162.117188 138.070312 147.617188 160.0625 152.242188 182.570312 C 156.863281 205.078125 178.859375 219.578125 201.367188 214.957031 C 211.8125 212.808594 220.53125 206.921875 226.414062 198.980469 C 221.105469 204.882812 213.929688 209.207031 205.554688 210.925781 "/><path style=" stroke:none;fill-rule:nonzero;fill:#6b3e0a;fill-opacity:1;" d="M 165.847656 175.171875 C 165.007812 175.457031 164.199219 175.761719 163.414062 176.082031 C 195.378906 180.21875 208.683594 196.679688 213.792969 206.1875 C 217.0625 204.609375 220.078125 202.542969 222.761719 200.039062 C 217.914062 194.980469 198.988281 177.597656 165.847656 175.171875 Z M 190.230469 172.746094 C 181.609375 171.945312 173.515625 172.773438 166.925781 174.820312 C 177.34375 174.613281 206.863281 176.003906 225.960938 196.699219 C 225.964844 196.667969 225.96875 196.636719 225.972656 196.605469 C 227.019531 185.363281 211.015625 174.683594 190.230469 172.746094 Z M 162.929688 176.289062 C 162.574219 176.441406 162.226562 176.601562 161.882812 176.761719 C 181.636719 182.972656 191.371094 197.882812 196.117188 209.816406 C 199.140625 209.953125 202.179688 209.714844 205.179688 209.101562 C 206.046875 208.921875 206.902344 208.710938 207.746094 208.472656 C 196.335938 185.617188 171.933594 178.273438 162.929688 176.289062 Z M 161.378906 177.15625 C 161.507812 178.296875 161.683594 179.441406 161.917969 180.582031 C 164.800781 194.621094 175.300781 205.375 188.828125 208.75 C 181.519531 189.75 167.175781 180.316406 161.378906 177.15625 "/></g></svg>